<svg width="449" height="142" viewBox="0 0 449 142" fill="none" xmlns="http://www.w3.org/2000/svg">
<path d="M0.203125 136V29.1641H1.76562L17.1953 54.1641V136H0.203125ZM0.203125 10.2188V-0.71875H14.8516L87.1172 115.102V136H78.7188L0.203125 10.2188ZM70.125 70.7656V-0.71875H87.1172V95.7656H85.5547L70.125 70.7656ZM140.375 136L166.352 20.5703H169.477L176.117 50.8438L157.172 136H140.375ZM171.625 114.125L175.336 97.5234H196.234L174.555 -0.523438H191.547L222.406 136H205.414L200.531 114.125H171.625ZM334.125 136H351.117V-0.71875H334.125V136ZM360.883 136.195H377.094C392.328 136.195 403.721 130.661 411.273 119.594C415.831 112.823 418.109 105.206 418.109 96.7422C417.979 84.2422 413.357 74.4766 404.242 67.4453C411.664 61.9766 416.026 54.0339 417.328 43.6172C417.589 41.7943 417.719 40.0365 417.719 38.3438C417.719 26.1042 413.487 16.2734 405.023 8.85156C397.732 2.47135 388.292 -0.71875 376.703 -0.71875H360.883V14.5156H374.75C385.818 14.5156 393.565 19.0078 397.992 27.9922C399.815 31.638 400.727 35.4141 400.727 39.3203C400.727 50.6484 395.323 57.2891 384.516 59.2422C382.562 59.6328 380.479 59.8281 378.266 59.8281H360.883V75.0625H378.266C390.505 75.0625 397.862 79.8802 400.336 89.5156C400.857 91.4688 401.117 93.5521 401.117 95.7656C401.117 104.88 397.406 111.781 389.984 116.469C384.906 119.464 378.656 120.961 371.234 120.961H360.883V136.195Z" fill="url(#paint0_linear_2414_2376)"/>
<path d="M90.1133 131.664V124.428C90.1133 123.51 90.5234 122.611 91.3438 121.732C92.3594 120.678 93.6289 120.15 95.1523 120.15V122.523C94 122.523 93.1992 123.002 92.75 123.959C92.6133 124.252 92.5449 124.545 92.5449 124.838V131.283C92.5449 132.006 92.877 132.621 93.541 133.129C94.0098 133.48 94.5469 133.656 95.1523 133.656V136.029C93.2969 136.029 91.8613 135.277 90.8457 133.773C90.3574 133.031 90.1133 132.328 90.1133 131.664ZM96.4121 136.029V133.656C97.4473 133.656 98.1895 133.188 98.6387 132.25C98.7949 131.938 98.873 131.635 98.873 131.342V124.838C98.873 124.037 98.5312 123.402 97.8477 122.934C97.418 122.66 96.9297 122.523 96.3828 122.523V120.15C98.1797 120.15 99.5664 120.883 100.543 122.348C101.031 123.07 101.275 123.764 101.275 124.428V131.664C101.275 132.621 100.865 133.549 100.045 134.447C99.0879 135.482 97.877 136.01 96.4121 136.029ZM103.268 131.664V124.428C103.287 123.373 103.766 122.396 104.703 121.498C105.621 120.619 106.695 120.18 107.926 120.18H110.24V122.553H107.955C107.154 122.553 106.5 122.914 105.992 123.637C105.777 123.969 105.67 124.281 105.67 124.574V131.605C105.67 132.23 106.021 132.768 106.725 133.217C107.135 133.49 107.555 133.627 107.984 133.627H110.24V136H108.014C106.275 136 104.928 135.248 103.971 133.744C103.502 133.002 103.268 132.309 103.268 131.664ZM111.646 136L111.676 115.287H114.195V136H111.646ZM116.539 131.664V124.398C116.559 123.5 116.988 122.611 117.828 121.732C118.844 120.697 120.074 120.17 121.52 120.15V122.465C120.582 122.465 119.85 122.875 119.322 123.695C119.107 124.047 119 124.369 119 124.662V126.654H125.562V124.662C125.562 123.783 125.113 123.139 124.215 122.729C123.805 122.533 123.385 122.436 122.955 122.436V120.15C124.303 120.15 125.504 120.629 126.559 121.586C127.438 122.426 127.887 123.354 127.906 124.369V129.027H119V131.664C119 132.211 119.312 132.719 119.938 133.188C120.445 133.539 120.982 133.715 121.549 133.715V136C119.771 136 118.375 135.277 117.359 133.832C116.812 133.07 116.539 132.348 116.539 131.664ZM122.955 136V133.686C124.127 133.686 125.006 133.178 125.592 132.162C125.709 131.947 125.797 131.742 125.855 131.547L127.936 132.309C127.584 133.656 126.783 134.672 125.533 135.355C124.732 135.785 123.873 136 122.955 136Z" fill="url(#paint1_linear_2414_2376)"/>
<path d="M226.879 131.664V124.428C226.898 123.373 227.377 122.396 228.314 121.498C229.232 120.619 230.307 120.18 231.537 120.18H233.852V122.553H231.566C230.766 122.553 230.111 122.914 229.604 123.637C229.389 123.969 229.281 124.281 229.281 124.574V131.605C229.281 132.23 229.633 132.768 230.336 133.217C230.746 133.49 231.166 133.627 231.596 133.627H233.852V136H231.625C229.887 136 228.539 135.248 227.582 133.744C227.113 133.002 226.879 132.309 226.879 131.664ZM235.258 136L235.287 115.287H237.807V136H235.258ZM239.271 120.15H241.996L246.596 133.627L245.775 136H244.428L239.271 120.15ZM245.717 127.855L248.383 120.15H251.137L247.299 131.43H246.947L245.717 127.855ZM252.338 132.309C252.338 133.383 252.865 134.291 253.92 135.033C254.818 135.658 255.873 135.971 257.084 135.971V133.686C255.385 133.646 254.525 133.002 254.506 131.752V130.961C254.525 130.531 254.643 130.219 254.857 130.023C255.092 129.809 256.137 129.477 257.992 129.027C259.438 128.676 260.414 128.363 260.922 128.09V131.459C260.922 132.729 260.307 133.461 259.076 133.656C258.881 133.676 258.695 133.686 258.52 133.686V135.971C259.887 135.951 260.961 135.609 261.742 134.945C262.348 135.629 263.139 135.971 264.115 135.971V133.656C263.607 133.617 263.344 133.295 263.324 132.689V124.662C263.324 123.412 262.846 122.318 261.889 121.381C260.99 120.521 259.867 120.092 258.52 120.092V122.348C259.438 122.348 260.121 122.719 260.57 123.461C260.805 123.852 260.922 124.281 260.922 124.75V125.307C260.922 125.795 259.76 126.361 257.436 127.006C255.346 127.592 254.145 127.963 253.832 128.119C252.836 128.705 252.338 129.633 252.338 130.902V132.309ZM252.543 124.076L254.711 124.896C254.711 123.803 255.16 123.041 256.059 122.611C256.391 122.455 256.742 122.377 257.113 122.377V120.092C255.766 120.092 254.613 120.58 253.656 121.557C252.914 122.299 252.543 123.139 252.543 124.076ZM266.195 136V124.428C266.195 123.49 266.615 122.572 267.455 121.674C268.49 120.619 269.77 120.092 271.293 120.092V122.523C270.297 122.523 269.535 122.914 269.008 123.695C268.793 124.027 268.686 124.369 268.686 124.721V136H266.195ZM272.582 122.523V120.092C274.398 120.092 275.814 120.824 276.83 122.289C277.377 123.051 277.65 123.764 277.65 124.428V136H275.16V124.721C275.16 124.115 274.857 123.578 274.252 123.109C273.764 122.719 273.207 122.523 272.582 122.523ZM279.906 131.664C279.906 132.699 280.307 133.646 281.107 134.506C282.045 135.502 283.285 136 284.828 136V133.656C283.773 133.656 283.021 133.266 282.572 132.484C282.416 132.211 282.338 131.938 282.338 131.664V124.545C282.338 123.92 282.66 123.383 283.305 122.934C283.754 122.641 284.262 122.494 284.828 122.494V120.15C282.953 120.15 281.547 120.883 280.609 122.348C280.141 123.07 279.906 123.783 279.906 124.486V131.664ZM286.146 122.523C287.104 122.523 287.768 122.934 288.139 123.754C288.275 124.066 288.354 124.389 288.373 124.721V125.424L290.658 124.545C290.658 123.119 290.072 121.957 288.9 121.059C288.08 120.453 287.162 120.15 286.146 120.15V122.523ZM286.146 136.029C287.533 136.049 288.744 135.521 289.779 134.447C290.6 133.568 291.01 132.611 291.01 131.576L288.725 130.727C288.725 130.746 288.725 130.766 288.725 130.785C288.725 130.805 288.725 130.844 288.725 130.902C288.725 130.961 288.725 131.01 288.725 131.049C288.725 131.088 288.725 131.137 288.725 131.195C288.725 131.234 288.725 131.273 288.725 131.312L288.695 131.371C288.598 132.465 288.051 133.178 287.055 133.51C286.762 133.607 286.459 133.656 286.146 133.656V136.029ZM292.885 131.664V124.398C292.904 123.5 293.334 122.611 294.174 121.732C295.189 120.697 296.42 120.17 297.865 120.15V122.465C296.928 122.465 296.195 122.875 295.668 123.695C295.453 124.047 295.346 124.369 295.346 124.662V126.654H301.908V124.662C301.908 123.783 301.459 123.139 300.561 122.729C300.15 122.533 299.73 122.436 299.301 122.436V120.15C300.648 120.15 301.85 120.629 302.904 121.586C303.783 122.426 304.232 123.354 304.252 124.369V129.027H295.346V131.664C295.346 132.211 295.658 132.719 296.283 133.188C296.791 133.539 297.328 133.715 297.895 133.715V136C296.117 136 294.721 135.277 293.705 133.832C293.158 133.07 292.885 132.348 292.885 131.664ZM299.301 136V133.686C300.473 133.686 301.352 133.178 301.938 132.162C302.055 131.947 302.143 131.742 302.201 131.547L304.281 132.309C303.93 133.656 303.129 134.672 301.879 135.355C301.078 135.785 300.219 136 299.301 136ZM306.332 131.664V124.428C306.352 123.373 306.83 122.396 307.768 121.498C308.686 120.619 309.76 120.18 310.99 120.18H313.305V122.553H311.02C310.219 122.553 309.564 122.914 309.057 123.637C308.842 123.969 308.734 124.281 308.734 124.574V131.605C308.734 132.23 309.086 132.768 309.789 133.217C310.199 133.49 310.619 133.627 311.049 133.627H313.305V136H311.078C309.34 136 307.992 135.248 307.035 133.744C306.566 133.002 306.332 132.309 306.332 131.664ZM314.711 136L314.74 115.287H317.26V136H314.711Z" fill="url(#paint2_linear_2414_2376)"/>
<path d="M419.23 136V115.316H421.838V136H419.23ZM424.182 131.664V124.428C424.182 123.51 424.592 122.611 425.412 121.732C426.428 120.678 427.697 120.15 429.221 120.15V122.523C428.068 122.523 427.268 123.002 426.818 123.959C426.682 124.252 426.613 124.545 426.613 124.838V131.283C426.613 132.006 426.945 132.621 427.609 133.129C428.078 133.48 428.615 133.656 429.221 133.656V136.029C427.365 136.029 425.93 135.277 424.914 133.773C424.426 133.031 424.182 132.328 424.182 131.664ZM430.48 136.029V133.656C431.516 133.656 432.258 133.188 432.707 132.25C432.863 131.938 432.941 131.635 432.941 131.342V124.838C432.941 124.037 432.6 123.402 431.916 122.934C431.486 122.66 430.998 122.523 430.451 122.523V120.15C432.248 120.15 433.635 120.883 434.611 122.348C435.1 123.07 435.344 123.764 435.344 124.428V131.664C435.344 132.621 434.934 133.549 434.113 134.447C433.156 135.482 431.945 136.01 430.48 136.029ZM437.189 141.42L437.805 139.135H443.312C444.406 139.096 445.207 138.666 445.715 137.846C445.871 137.572 445.949 137.328 445.949 137.113V135.004C445.148 135.57 444.348 135.873 443.547 135.912V133.656C444.406 133.656 445.09 133.295 445.598 132.572C445.832 132.24 445.949 131.908 445.949 131.576V124.398C445.949 123.656 445.539 123.07 444.719 122.641C444.328 122.445 443.938 122.348 443.547 122.348V120.033C444.426 120.033 445.197 120.307 445.861 120.854C445.9 120.873 445.93 120.893 445.949 120.912V120.033H448.322V137.113C448.322 137.953 447.941 138.822 447.18 139.721C446.223 140.834 445.041 141.4 443.635 141.42H437.189ZM437.482 131.605V124.281C437.502 123.363 437.912 122.465 438.713 121.586C439.67 120.57 440.852 120.053 442.258 120.033V122.348C441.301 122.348 440.578 122.758 440.09 123.578C439.914 123.871 439.826 124.135 439.826 124.369V131.576C439.826 132.162 440.129 132.68 440.734 133.129C441.184 133.441 441.691 133.598 442.258 133.598V135.912C440.461 135.893 439.094 135.131 438.156 133.627C437.707 132.904 437.482 132.23 437.482 131.605Z" fill="url(#paint3_linear_2414_2376)"/>
<defs>
<linearGradient id="paint0_linear_2414_2376" x1="426" y1="-69" x2="153.05" y2="338.005" gradientUnits="userSpaceOnUse">
<stop stop-color="#8439FF"/>
<stop offset="1" stop-color="#FF3981"/>
</linearGradient>
<linearGradient id="paint1_linear_2414_2376" x1="130" y1="105" x2="85.695" y2="146.469" gradientUnits="userSpaceOnUse">
<stop stop-color="#8439FF"/>
<stop offset="1" stop-color="#FF3981"/>
</linearGradient>
<linearGradient id="paint2_linear_2414_2376" x1="319" y1="105" x2="284.767" y2="177.68" gradientUnits="userSpaceOnUse">
<stop stop-color="#8439FF"/>
<stop offset="1" stop-color="#FF3981"/>
</linearGradient>
<linearGradient id="paint3_linear_2414_2376" x1="450" y1="105" x2="407.7" y2="135.901" gradientUnits="userSpaceOnUse">
<stop stop-color="#8439FF"/>
<stop offset="1" stop-color="#FF3981"/>
</linearGradient>
</defs>
</svg>
